<mxfile host="65bd71144e" pages="1">
    <diagram id="kwumHu8r9ylj2fb_xfT_" name="Page-1">
        <mxGraphModel dx="1783" dy="1366" grid="1" gridSize="10" guides="1" tooltips="1" connect="1" arrows="1" fold="1" page="1" pageScale="1" pageWidth="850" pageHeight="1100" background="none" math="0" shadow="0">
            <root>
                <mxCell id="0"/>
                <mxCell id="1" parent="0"/>
                <mxCell id="jsl7v__lhKFGb2CzP1p2-154" value="" style="rounded=0;whiteSpace=wrap;html=1;" parent="1" vertex="1">
                    <mxGeometry x="41" y="340" width="239" height="200" as="geometry"/>
                </mxCell>
                <mxCell id="23" value="Raspberry Pi to Azure IoT Hub" style="whiteSpace=wrap;html=1;aspect=fixed;" parent="1" vertex="1">
                    <mxGeometry x="355" y="340" width="80" height="80" as="geometry"/>
                </mxCell>
                <mxCell id="24" value="" style="shape=datastore;whiteSpace=wrap;html=1;" parent="1" vertex="1">
                    <mxGeometry x="620" y="310" width="140" height="110" as="geometry"/>
                </mxCell>
                <mxCell id="25" value="" style="verticalLabelPosition=bottom;verticalAlign=top;html=1;shape=mxgraph.basic.rect;fillColor2=none;strokeWidth=1;size=13;indent=5;" parent="1" vertex="1">
                    <mxGeometry x="770" y="350" width="70" height="40" as="geometry"/>
                </mxCell>
                <mxCell id="33" value="" style="verticalLabelPosition=bottom;verticalAlign=top;html=1;shape=mxgraph.basic.rect;fillColor2=none;strokeWidth=1;size=20;indent=5;" parent="1" vertex="1">
                    <mxGeometry x="141" y="370" width="70" height="40" as="geometry"/>
                </mxCell>
                <mxCell id="44" style="edgeStyle=none;html=1;" parent="1" source="34" edge="1">
                    <mxGeometry relative="1" as="geometry">
                        <mxPoint x="90" y="430" as="targetPoint"/>
                    </mxGeometry>
                </mxCell>
                <mxCell id="34" value="" style="verticalLabelPosition=bottom;verticalAlign=top;html=1;shape=mxgraph.basic.rect;fillColor2=none;strokeWidth=1;size=20;indent=5;" parent="1" vertex="1">
                    <mxGeometry x="141" y="410" width="70" height="40" as="geometry"/>
                </mxCell>
                <mxCell id="35" value="" style="verticalLabelPosition=bottom;verticalAlign=top;html=1;shape=mxgraph.basic.rect;fillColor2=none;strokeWidth=1;size=20;indent=5;" parent="1" vertex="1">
                    <mxGeometry x="141" y="450" width="70" height="40" as="geometry"/>
                </mxCell>
                <mxCell id="39" value="DB" style="text;html=1;align=center;verticalAlign=middle;resizable=0;points=[];autosize=1;strokeColor=none;fillColor=none;" parent="1" vertex="1">
                    <mxGeometry x="55" y="466" width="30" height="20" as="geometry"/>
                </mxCell>
                <mxCell id="45" value="&lt;font style=&quot;font-size: 10px&quot;&gt;Node&lt;br&gt;EndPoint&lt;/font&gt;" style="text;html=1;align=center;verticalAlign=middle;resizable=0;points=[];autosize=1;strokeColor=none;fillColor=none;" parent="1" vertex="1">
                    <mxGeometry x="86" y="390" width="60" height="40" as="geometry"/>
                </mxCell>
                <mxCell id="46" value="Graph" style="text;html=1;align=center;verticalAlign=middle;resizable=0;points=[];autosize=1;strokeColor=none;fillColor=none;" parent="1" vertex="1">
                    <mxGeometry x="155" y="340" width="50" height="20" as="geometry"/>
                </mxCell>
                <mxCell id="47" value="Water Level" style="text;html=1;align=center;verticalAlign=middle;resizable=0;points=[];autosize=1;strokeColor=none;fillColor=none;" parent="1" vertex="1">
                    <mxGeometry x="136" y="380" width="80" height="20" as="geometry"/>
                </mxCell>
                <mxCell id="48" value="Power" style="text;html=1;align=center;verticalAlign=middle;resizable=0;points=[];autosize=1;strokeColor=none;fillColor=none;" parent="1" vertex="1">
                    <mxGeometry x="151" y="420" width="50" height="20" as="geometry"/>
                </mxCell>
                <mxCell id="49" value="Water &lt;br&gt;Sensors" style="text;html=1;align=center;verticalAlign=middle;resizable=0;points=[];autosize=1;strokeColor=none;fillColor=none;" parent="1" vertex="1">
                    <mxGeometry x="145" y="455" width="60" height="30" as="geometry"/>
                </mxCell>
                <mxCell id="50" value="Node&lt;br&gt;BackEnd" style="text;html=1;align=center;verticalAlign=middle;resizable=0;points=[];autosize=1;strokeColor=none;fillColor=none;" parent="1" vertex="1">
                    <mxGeometry x="211" y="455" width="60" height="30" as="geometry"/>
                </mxCell>
                <mxCell id="51" value="React &lt;br&gt;FrontEnd" style="text;html=1;align=center;verticalAlign=middle;resizable=0;points=[];autosize=1;strokeColor=none;fillColor=none;" parent="1" vertex="1">
                    <mxGeometry x="146" y="500" width="60" height="30" as="geometry"/>
                </mxCell>
                <mxCell id="56" value="One &lt;br&gt;EndPoint" style="text;html=1;align=center;verticalAlign=middle;resizable=0;points=[];autosize=1;strokeColor=none;fillColor=none;" parent="1" vertex="1">
                    <mxGeometry x="211" y="415" width="60" height="30" as="geometry"/>
                </mxCell>
                <mxCell id="58" value="" style="edgeStyle=segmentEdgeStyle;endArrow=classic;html=1;entryX=0.06;entryY=0.633;entryDx=0;entryDy=0;entryPerimeter=0;" parent="1" target="SXwqGnE4gHne9lj4v5kZ-164" edge="1">
                    <mxGeometry width="50" height="50" relative="1" as="geometry">
                        <mxPoint x="211" y="390" as="sourcePoint"/>
                        <mxPoint x="261" y="340" as="targetPoint"/>
                        <Array as="points">
                            <mxPoint x="261" y="390"/>
                            <mxPoint x="261" y="317"/>
                            <mxPoint x="261" y="317"/>
                        </Array>
                    </mxGeometry>
                </mxCell>
                <mxCell id="65" value="ED1&amp;nbsp;8 Port &lt;br&gt;5 used" style="text;html=1;align=center;verticalAlign=middle;resizable=0;points=[];autosize=1;strokeColor=none;fillColor=none;" parent="1" vertex="1">
                    <mxGeometry x="770" y="355" width="70" height="30" as="geometry"/>
                </mxCell>
                <mxCell id="66" value="Flowmeters" style="text;html=1;align=center;verticalAlign=middle;resizable=0;points=[];autosize=1;strokeColor=none;fillColor=none;" parent="1" vertex="1">
                    <mxGeometry x="409" y="699.5" width="80" height="20" as="geometry"/>
                </mxCell>
                <mxCell id="67" value="Flowmeters" style="text;html=1;align=center;verticalAlign=middle;resizable=0;points=[];autosize=1;strokeColor=none;fillColor=none;" parent="1" vertex="1">
                    <mxGeometry x="408" y="670" width="80" height="20" as="geometry"/>
                </mxCell>
                <mxCell id="68" value="Flowmeters" style="text;html=1;align=center;verticalAlign=middle;resizable=0;points=[];autosize=1;strokeColor=none;fillColor=none;" parent="1" vertex="1">
                    <mxGeometry x="408" y="730" width="80" height="20" as="geometry"/>
                </mxCell>
                <mxCell id="69" value="" style="edgeStyle=segmentEdgeStyle;endArrow=classic;html=1;exitX=0.997;exitY=0.529;exitDx=0;exitDy=0;exitPerimeter=0;fillColor=#a20025;strokeColor=#6F0000;entryX=0.575;entryY=1.032;entryDx=0;entryDy=0;entryPerimeter=0;" parent="1" source="152" target="320" edge="1">
                    <mxGeometry width="50" height="50" relative="1" as="geometry">
                        <mxPoint x="480.97" y="500.03" as="sourcePoint"/>
                        <mxPoint x="540" y="440" as="targetPoint"/>
                        <Array as="points">
                            <mxPoint x="481" y="690"/>
                            <mxPoint x="540" y="690"/>
                        </Array>
                    </mxGeometry>
                </mxCell>
                <mxCell id="72" value="" style="edgeStyle=segmentEdgeStyle;endArrow=classic;html=1;entryX=0.721;entryY=1.018;entryDx=0;entryDy=0;entryPerimeter=0;exitX=0.999;exitY=0.709;exitDx=0;exitDy=0;exitPerimeter=0;fillColor=#a20025;strokeColor=#6F0000;" parent="1" source="152" target="320" edge="1">
                    <mxGeometry width="50" height="50" relative="1" as="geometry">
                        <mxPoint x="470" y="530" as="sourcePoint"/>
                        <mxPoint x="550.5000000000001" y="443" as="targetPoint"/>
                        <Array as="points">
                            <mxPoint x="416" y="721"/>
                            <mxPoint x="551" y="720"/>
                        </Array>
                    </mxGeometry>
                </mxCell>
                <mxCell id="73" value="" style="edgeStyle=segmentEdgeStyle;endArrow=classic;html=1;entryX=0.907;entryY=1.05;entryDx=0;entryDy=0;entryPerimeter=0;exitX=1.016;exitY=0.902;exitDx=0;exitDy=0;exitPerimeter=0;fillColor=#a20025;strokeColor=#6F0000;" parent="1" source="152" target="320" edge="1">
                    <mxGeometry width="50" height="50" relative="1" as="geometry">
                        <mxPoint x="470" y="690" as="sourcePoint"/>
                        <mxPoint x="563.5" y="442.01" as="targetPoint"/>
                    </mxGeometry>
                </mxCell>
                <mxCell id="75" value="" style="shape=sortShape;perimeter=rhombusPerimeter;whiteSpace=wrap;html=1;" parent="1" vertex="1">
                    <mxGeometry x="460" y="165" width="10" height="20" as="geometry"/>
                </mxCell>
                <mxCell id="77" value="" style="shape=sortShape;perimeter=rhombusPerimeter;whiteSpace=wrap;html=1;" parent="1" vertex="1">
                    <mxGeometry x="185" y="170" width="10" height="20" as="geometry"/>
                </mxCell>
                <mxCell id="78" value="" style="shape=sortShape;perimeter=rhombusPerimeter;whiteSpace=wrap;html=1;" parent="1" vertex="1">
                    <mxGeometry x="710" y="370" width="10" height="20" as="geometry"/>
                </mxCell>
                <mxCell id="79" value="" style="shape=sortShape;perimeter=rhombusPerimeter;whiteSpace=wrap;html=1;" parent="1" vertex="1">
                    <mxGeometry x="690" y="370" width="10" height="20" as="geometry"/>
                </mxCell>
                <mxCell id="80" value="" style="shape=sortShape;perimeter=rhombusPerimeter;whiteSpace=wrap;html=1;" parent="1" vertex="1">
                    <mxGeometry x="670" y="370" width="10" height="20" as="geometry"/>
                </mxCell>
                <mxCell id="81" value="" style="shape=sortShape;perimeter=rhombusPerimeter;whiteSpace=wrap;html=1;" parent="1" vertex="1">
                    <mxGeometry x="730" y="370" width="10" height="20" as="geometry"/>
                </mxCell>
                <mxCell id="83" value="" style="edgeStyle=elbowEdgeStyle;elbow=vertical;endArrow=classic;html=1;entryX=0.25;entryY=0;entryDx=0;entryDy=0;fillColor=#008a00;strokeColor=#005700;exitX=0.4;exitY=1;exitDx=0;exitDy=0;exitPerimeter=0;" parent="1" source="310" target="23" edge="1">
                    <mxGeometry width="50" height="50" relative="1" as="geometry">
                        <mxPoint x="278" y="210" as="sourcePoint"/>
                        <mxPoint x="300" y="170" as="targetPoint"/>
                        <Array as="points">
                            <mxPoint x="360" y="280"/>
                            <mxPoint x="290" y="250"/>
                            <mxPoint x="320" y="260"/>
                            <mxPoint x="290" y="270"/>
                        </Array>
                    </mxGeometry>
                </mxCell>
                <mxCell id="92" value="" style="edgeStyle=elbowEdgeStyle;elbow=vertical;endArrow=classic;html=1;exitX=0.5;exitY=0;exitDx=0;exitDy=0;fillColor=#60a917;strokeColor=#2D7600;" parent="1" source="80" edge="1">
                    <mxGeometry width="50" height="50" relative="1" as="geometry">
                        <mxPoint x="735" y="370" as="sourcePoint"/>
                        <mxPoint x="819" y="350" as="targetPoint"/>
                        <Array as="points">
                            <mxPoint x="740" y="250"/>
                            <mxPoint x="710" y="260"/>
                            <mxPoint x="795" y="240"/>
                        </Array>
                    </mxGeometry>
                </mxCell>
                <mxCell id="93" value="" style="edgeStyle=elbowEdgeStyle;elbow=vertical;endArrow=classic;html=1;exitX=0.5;exitY=0;exitDx=0;exitDy=0;fillColor=#60a917;strokeColor=#2D7600;" parent="1" source="79" edge="1">
                    <mxGeometry width="50" height="50" relative="1" as="geometry">
                        <mxPoint x="700" y="420" as="sourcePoint"/>
                        <mxPoint x="802" y="350" as="targetPoint"/>
                        <Array as="points">
                            <mxPoint x="750" y="260"/>
                            <mxPoint x="710" y="260"/>
                        </Array>
                    </mxGeometry>
                </mxCell>
                <mxCell id="94" value="" style="edgeStyle=elbowEdgeStyle;elbow=vertical;endArrow=classic;html=1;exitX=0.5;exitY=0;exitDx=0;exitDy=0;fillColor=#60a917;strokeColor=#2D7600;" parent="1" source="78" edge="1">
                    <mxGeometry width="50" height="50" relative="1" as="geometry">
                        <mxPoint x="705" y="380" as="sourcePoint"/>
                        <mxPoint x="789" y="350" as="targetPoint"/>
                        <Array as="points">
                            <mxPoint x="760" y="270"/>
                            <mxPoint x="720" y="270"/>
                        </Array>
                    </mxGeometry>
                </mxCell>
                <mxCell id="95" value="" style="edgeStyle=elbowEdgeStyle;elbow=vertical;endArrow=classic;html=1;exitX=0.5;exitY=0;exitDx=0;exitDy=0;fillColor=#60a917;strokeColor=#2D7600;" parent="1" source="81" edge="1">
                    <mxGeometry width="50" height="50" relative="1" as="geometry">
                        <mxPoint x="715" y="390" as="sourcePoint"/>
                        <mxPoint x="777" y="350" as="targetPoint"/>
                        <Array as="points">
                            <mxPoint x="777" y="280"/>
                            <mxPoint x="760" y="280"/>
                            <mxPoint x="770" y="280"/>
                            <mxPoint x="730" y="280"/>
                        </Array>
                    </mxGeometry>
                </mxCell>
                <mxCell id="102" value="" style="edgeStyle=elbowEdgeStyle;elbow=horizontal;endArrow=classic;html=1;entryX=1;entryY=0.25;entryDx=0;entryDy=0;fillColor=#008a00;strokeColor=#005700;" parent="1" target="23" edge="1">
                    <mxGeometry width="50" height="50" relative="1" as="geometry">
                        <mxPoint x="705" y="499" as="sourcePoint"/>
                        <mxPoint x="475" y="359" as="targetPoint"/>
                        <Array as="points">
                            <mxPoint x="575" y="434"/>
                            <mxPoint x="595" y="449"/>
                            <mxPoint x="595" y="449"/>
                            <mxPoint x="595" y="409"/>
                            <mxPoint x="605" y="404"/>
                        </Array>
                    </mxGeometry>
                </mxCell>
                <mxCell id="106" value="" style="shape=sortShape;perimeter=rhombusPerimeter;whiteSpace=wrap;html=1;rotation=90;" parent="1" vertex="1">
                    <mxGeometry x="755" y="390" width="10" height="20" as="geometry"/>
                </mxCell>
                <mxCell id="107" value="" style="shape=sortShape;perimeter=rhombusPerimeter;whiteSpace=wrap;html=1;rotation=90;" parent="1" vertex="1">
                    <mxGeometry x="615" y="320" width="10" height="20" as="geometry"/>
                </mxCell>
                <mxCell id="122" value="&lt;font style=&quot;font-size: 10px&quot;&gt;Wired&amp;nbsp;&lt;br&gt;Sensor&lt;/font&gt;" style="text;html=1;align=center;verticalAlign=middle;resizable=0;points=[];autosize=1;strokeColor=none;fillColor=none;" parent="1" vertex="1">
                    <mxGeometry x="130" y="170" width="50" height="40" as="geometry"/>
                </mxCell>
                <mxCell id="123" value="&lt;b&gt;Mini Dam&lt;/b&gt;" style="text;html=1;align=center;verticalAlign=middle;resizable=0;points=[];autosize=1;strokeColor=none;fillColor=none;" parent="1" vertex="1">
                    <mxGeometry x="101" y="130" width="70" height="20" as="geometry"/>
                </mxCell>
                <mxCell id="125" value="&lt;b&gt;Well&lt;/b&gt;" style="text;html=1;align=center;verticalAlign=middle;resizable=0;points=[];autosize=1;strokeColor=none;fillColor=none;" parent="1" vertex="1">
                    <mxGeometry x="420" y="140" width="40" height="20" as="geometry"/>
                </mxCell>
                <mxCell id="128" value="Water LevelSensor" style="text;html=1;align=center;verticalAlign=middle;resizable=0;points=[];autosize=1;strokeColor=none;fillColor=none;" parent="1" vertex="1">
                    <mxGeometry x="165.5" y="10" width="120" height="20" as="geometry"/>
                </mxCell>
                <mxCell id="145" value="&lt;font style=&quot;font-size: 10px&quot;&gt;Outlet&lt;br&gt;Flow Meter&lt;/font&gt;" style="text;html=1;align=center;verticalAlign=middle;resizable=0;points=[];autosize=1;strokeColor=none;fillColor=none;" parent="1" vertex="1">
                    <mxGeometry x="750" y="395" width="60" height="40" as="geometry"/>
                </mxCell>
                <mxCell id="146" value="&lt;font style=&quot;font-size: 8px&quot;&gt;PH&lt;/font&gt;" style="text;html=1;align=center;verticalAlign=middle;resizable=0;points=[];autosize=1;strokeColor=none;fillColor=none;" parent="1" vertex="1">
                    <mxGeometry x="680" y="385" width="30" height="20" as="geometry"/>
                </mxCell>
                <mxCell id="147" value="&lt;font style=&quot;font-size: 8px&quot;&gt;Turbidity&lt;/font&gt;" style="text;html=1;align=center;verticalAlign=middle;resizable=0;points=[];autosize=1;strokeColor=none;fillColor=none;" parent="1" vertex="1">
                    <mxGeometry x="715" y="385" width="50" height="20" as="geometry"/>
                </mxCell>
                <mxCell id="148" value="&lt;font style=&quot;font-size: 8px&quot;&gt;TSS/&lt;br&gt;COD/&lt;br&gt;BOD&lt;/font&gt;" style="text;html=1;align=center;verticalAlign=middle;resizable=0;points=[];autosize=1;strokeColor=none;fillColor=none;" parent="1" vertex="1">
                    <mxGeometry x="640" y="371" width="40" height="50" as="geometry"/>
                </mxCell>
                <mxCell id="149" value="&lt;font style=&quot;font-size: 8px&quot;&gt;TDS&lt;/font&gt;" style="text;html=1;align=center;verticalAlign=middle;resizable=0;points=[];autosize=1;strokeColor=none;fillColor=none;" parent="1" vertex="1">
                    <mxGeometry x="700" y="390" width="30" height="20" as="geometry"/>
                </mxCell>
                <mxCell id="150" value="&lt;font style=&quot;font-size: 10px&quot;&gt;Wired&amp;nbsp;&lt;br&gt;Sensor&lt;/font&gt;" style="text;html=1;align=center;verticalAlign=middle;resizable=0;points=[];autosize=1;strokeColor=none;fillColor=none;" parent="1" vertex="1">
                    <mxGeometry x="415" y="165" width="50" height="40" as="geometry"/>
                </mxCell>
                <mxCell id="SXwqGnE4gHne9lj4v5kZ-161" value="" style="endArrow=none;html=1;fillColor=#008a00;strokeColor=#005700;" parent="1" edge="1">
                    <mxGeometry width="50" height="50" relative="1" as="geometry">
                        <mxPoint x="705" y="499" as="sourcePoint"/>
                        <mxPoint x="820" y="499" as="targetPoint"/>
                    </mxGeometry>
                </mxCell>
                <mxCell id="SXwqGnE4gHne9lj4v5kZ-163" value="&lt;font style=&quot;font-size: 10px&quot;&gt;100 m length&lt;/font&gt;" style="text;html=1;resizable=0;points=[];autosize=1;align=left;verticalAlign=top;spacingTop=-4;" parent="1" vertex="1">
                    <mxGeometry x="680" y="481" width="70" height="20" as="geometry"/>
                </mxCell>
                <mxCell id="SXwqGnE4gHne9lj4v5kZ-164" value="" style="aspect=fixed;pointerEvents=1;shadow=0;dashed=0;html=1;strokeColor=none;labelPosition=center;verticalLabelPosition=bottom;verticalAlign=top;align=center;fillColor=#00188D;shape=mxgraph.mscae.enterprise.wireless_connection;rotation=-90;" parent="1" vertex="1">
                    <mxGeometry x="242" y="285" width="29" height="35" as="geometry"/>
                </mxCell>
                <mxCell id="SXwqGnE4gHne9lj4v5kZ-165" value="" style="aspect=fixed;pointerEvents=1;shadow=0;dashed=0;html=1;strokeColor=none;labelPosition=center;verticalLabelPosition=bottom;verticalAlign=top;align=center;fillColor=#00188D;shape=mxgraph.mscae.enterprise.wireless_connection;rotation=-90;" parent="1" vertex="1">
                    <mxGeometry x="451" y="250" width="29" height="35" as="geometry"/>
                </mxCell>
                <mxCell id="SXwqGnE4gHne9lj4v5kZ-166" value="" style="shape=datastore;whiteSpace=wrap;html=1;" parent="1" vertex="1">
                    <mxGeometry x="50" y="395" width="40" height="60" as="geometry"/>
                </mxCell>
                <mxCell id="y8w2IBDmMbdYCL9vbUdV-152" value="" style="shape=mxgraph.pid.vessels.concrete_tank;html=1;align=center;verticalLabelPosition=bottom;verticalAlign=top;dashed=0;fillColor=#330000;" parent="1" vertex="1">
                    <mxGeometry x="50" y="94.5" width="186" height="149" as="geometry"/>
                </mxCell>
                <mxCell id="y8w2IBDmMbdYCL9vbUdV-159" value="" style="shape=mxgraph.pid.vessels.concrete_tank;html=1;align=center;verticalLabelPosition=bottom;verticalAlign=top;dashed=0;shadow=1;fillColor=#001933;" parent="1" vertex="1">
                    <mxGeometry x="380" y="128" width="110" height="93" as="geometry"/>
                </mxCell>
                <mxCell id="y8w2IBDmMbdYCL9vbUdV-167" value="" style="endArrow=none;dashed=1;html=1;entryX=0.968;entryY=0.171;entryDx=0;entryDy=0;entryPerimeter=0;" parent="1" target="y8w2IBDmMbdYCL9vbUdV-152" edge="1">
                    <mxGeometry width="50" height="50" relative="1" as="geometry">
                        <mxPoint x="61" y="120" as="sourcePoint"/>
                        <mxPoint x="151" y="120" as="targetPoint"/>
                    </mxGeometry>
                </mxCell>
                <mxCell id="y8w2IBDmMbdYCL9vbUdV-168" value="" style="endArrow=none;dashed=1;html=1;entryX=0.968;entryY=0.171;entryDx=0;entryDy=0;entryPerimeter=0;" parent="1" edge="1">
                    <mxGeometry width="50" height="50" relative="1" as="geometry">
                        <mxPoint x="61" y="134" as="sourcePoint"/>
                        <mxPoint x="230.048" y="133.97900000000004" as="targetPoint"/>
                    </mxGeometry>
                </mxCell>
                <mxCell id="y8w2IBDmMbdYCL9vbUdV-169" value="" style="endArrow=none;dashed=1;html=1;entryX=0.968;entryY=0.171;entryDx=0;entryDy=0;entryPerimeter=0;" parent="1" edge="1">
                    <mxGeometry width="50" height="50" relative="1" as="geometry">
                        <mxPoint x="59" y="147" as="sourcePoint"/>
                        <mxPoint x="228.048" y="146.97900000000004" as="targetPoint"/>
                    </mxGeometry>
                </mxCell>
                <mxCell id="y8w2IBDmMbdYCL9vbUdV-170" value="" style="endArrow=none;dashed=1;html=1;entryX=0.968;entryY=0.171;entryDx=0;entryDy=0;entryPerimeter=0;" parent="1" edge="1">
                    <mxGeometry width="50" height="50" relative="1" as="geometry">
                        <mxPoint x="59" y="161" as="sourcePoint"/>
                        <mxPoint x="228.048" y="160.97900000000004" as="targetPoint"/>
                    </mxGeometry>
                </mxCell>
                <mxCell id="y8w2IBDmMbdYCL9vbUdV-171" value="" style="endArrow=none;dashed=1;html=1;entryX=0.968;entryY=0.171;entryDx=0;entryDy=0;entryPerimeter=0;" parent="1" edge="1">
                    <mxGeometry width="50" height="50" relative="1" as="geometry">
                        <mxPoint x="61" y="174" as="sourcePoint"/>
                        <mxPoint x="230.048" y="173.97900000000004" as="targetPoint"/>
                    </mxGeometry>
                </mxCell>
                <mxCell id="y8w2IBDmMbdYCL9vbUdV-172" value="" style="endArrow=none;dashed=1;html=1;entryX=0.968;entryY=0.171;entryDx=0;entryDy=0;entryPerimeter=0;" parent="1" edge="1">
                    <mxGeometry width="50" height="50" relative="1" as="geometry">
                        <mxPoint x="61" y="188" as="sourcePoint"/>
                        <mxPoint x="230.048" y="187.97900000000004" as="targetPoint"/>
                    </mxGeometry>
                </mxCell>
                <mxCell id="y8w2IBDmMbdYCL9vbUdV-173" value="" style="endArrow=none;dashed=1;html=1;entryX=0.968;entryY=0.171;entryDx=0;entryDy=0;entryPerimeter=0;" parent="1" edge="1">
                    <mxGeometry width="50" height="50" relative="1" as="geometry">
                        <mxPoint x="59" y="201" as="sourcePoint"/>
                        <mxPoint x="228.048" y="200.97900000000004" as="targetPoint"/>
                    </mxGeometry>
                </mxCell>
                <mxCell id="y8w2IBDmMbdYCL9vbUdV-174" value="" style="endArrow=none;dashed=1;html=1;entryX=0.968;entryY=0.171;entryDx=0;entryDy=0;entryPerimeter=0;" parent="1" edge="1">
                    <mxGeometry width="50" height="50" relative="1" as="geometry">
                        <mxPoint x="59" y="215" as="sourcePoint"/>
                        <mxPoint x="228.048" y="214.97900000000004" as="targetPoint"/>
                    </mxGeometry>
                </mxCell>
                <mxCell id="y8w2IBDmMbdYCL9vbUdV-175" value="" style="endArrow=none;dashed=1;html=1;" parent="1" edge="1">
                    <mxGeometry width="50" height="50" relative="1" as="geometry">
                        <mxPoint x="380.5" y="159.5" as="sourcePoint"/>
                        <mxPoint x="490" y="159" as="targetPoint"/>
                    </mxGeometry>
                </mxCell>
                <mxCell id="y8w2IBDmMbdYCL9vbUdV-176" value="" style="endArrow=none;dashed=1;html=1;" parent="1" edge="1">
                    <mxGeometry width="50" height="50" relative="1" as="geometry">
                        <mxPoint x="383.5" y="169.5" as="sourcePoint"/>
                        <mxPoint x="493" y="169" as="targetPoint"/>
                    </mxGeometry>
                </mxCell>
                <mxCell id="y8w2IBDmMbdYCL9vbUdV-177" value="" style="endArrow=none;dashed=1;html=1;" parent="1" edge="1">
                    <mxGeometry width="50" height="50" relative="1" as="geometry">
                        <mxPoint x="383.5" y="181.5" as="sourcePoint"/>
                        <mxPoint x="493" y="181" as="targetPoint"/>
                    </mxGeometry>
                </mxCell>
                <mxCell id="y8w2IBDmMbdYCL9vbUdV-178" value="" style="endArrow=none;dashed=1;html=1;" parent="1" edge="1">
                    <mxGeometry width="50" height="50" relative="1" as="geometry">
                        <mxPoint x="382.5" y="191.5" as="sourcePoint"/>
                        <mxPoint x="492" y="191" as="targetPoint"/>
                    </mxGeometry>
                </mxCell>
                <mxCell id="y8w2IBDmMbdYCL9vbUdV-181" value="" style="endArrow=none;dashed=1;html=1;" parent="1" edge="1">
                    <mxGeometry width="50" height="50" relative="1" as="geometry">
                        <mxPoint x="383.5" y="202.5" as="sourcePoint"/>
                        <mxPoint x="493" y="202" as="targetPoint"/>
                    </mxGeometry>
                </mxCell>
                <mxCell id="jsl7v__lhKFGb2CzP1p2-155" value="&lt;font style=&quot;font-size: 14px&quot;&gt;Responsive Web Application&lt;/font&gt;" style="text;html=1;strokeColor=none;fillColor=none;align=center;verticalAlign=middle;whiteSpace=wrap;rounded=0;" parent="1" vertex="1">
                    <mxGeometry x="46" y="305" width="180" height="20" as="geometry"/>
                </mxCell>
                <mxCell id="152" value="" style="rounded=0;whiteSpace=wrap;html=1;" parent="1" vertex="1">
                    <mxGeometry x="40" y="600" width="371" height="170" as="geometry"/>
                </mxCell>
                <mxCell id="162" value="" style="shape=sortShape;perimeter=rhombusPerimeter;whiteSpace=wrap;html=1;rotation=90;direction=south;" parent="1" vertex="1">
                    <mxGeometry x="189.75" y="109.75" width="21" height="9.5" as="geometry"/>
                </mxCell>
                <mxCell id="164" value="&lt;span style=&quot;font-size: 10px&quot;&gt;Flow Meter&lt;/span&gt;" style="text;html=1;align=center;verticalAlign=middle;resizable=0;points=[];autosize=1;strokeColor=none;fillColor=none;" parent="1" vertex="1">
                    <mxGeometry x="201" y="40" width="60" height="20" as="geometry"/>
                </mxCell>
                <mxCell id="168" value="" style="shape=sortShape;perimeter=rhombusPerimeter;whiteSpace=wrap;html=1;rotation=90;direction=south;" parent="1" vertex="1">
                    <mxGeometry x="394" y="169.75" width="21" height="9.5" as="geometry"/>
                </mxCell>
                <mxCell id="178" value="&lt;span style=&quot;font-size: 10px&quot;&gt;Flow Meter&lt;/span&gt;" style="text;html=1;align=center;verticalAlign=middle;resizable=0;points=[];autosize=1;strokeColor=none;fillColor=none;" parent="1" vertex="1">
                    <mxGeometry x="451" y="40" width="60" height="20" as="geometry"/>
                </mxCell>
                <mxCell id="187" value="Wiras" style="text;strokeColor=none;fillColor=none;html=1;fontSize=24;fontStyle=1;verticalAlign=middle;align=center;" parent="1" vertex="1">
                    <mxGeometry x="50" y="629.5" width="100" height="40" as="geometry"/>
                </mxCell>
                <mxCell id="191" value="Water LevelSensor" style="text;html=1;align=center;verticalAlign=middle;resizable=0;points=[];autosize=1;strokeColor=none;fillColor=none;" parent="1" vertex="1">
                    <mxGeometry x="400" y="10" width="120" height="20" as="geometry"/>
                </mxCell>
                <mxCell id="194" value="" style="endArrow=classic;html=1;curved=1;entryX=1;entryY=0.5;entryDx=0;entryDy=0;fillColor=#008a00;strokeColor=#005700;" parent="1" target="23" edge="1">
                    <mxGeometry width="50" height="50" relative="1" as="geometry">
                        <mxPoint x="550" y="390" as="sourcePoint"/>
                        <mxPoint x="450" y="430" as="targetPoint"/>
                        <Array as="points">
                            <mxPoint x="550" y="400"/>
                            <mxPoint x="550" y="390"/>
                            <mxPoint x="550" y="380"/>
                            <mxPoint x="540" y="380"/>
                        </Array>
                    </mxGeometry>
                </mxCell>
                <mxCell id="196" value="" style="rounded=1;whiteSpace=wrap;html=1;" parent="1" vertex="1">
                    <mxGeometry x="330" y="560" width="78" height="30" as="geometry"/>
                </mxCell>
                <mxCell id="201" value="Energymeter" style="rounded=1;whiteSpace=wrap;html=1;" parent="1" vertex="1">
                    <mxGeometry x="250" y="560" width="73" height="30" as="geometry"/>
                </mxCell>
                <mxCell id="202" value="Water Level Sensor" style="text;html=1;strokeColor=none;fillColor=none;align=center;verticalAlign=middle;whiteSpace=wrap;rounded=0;" parent="1" vertex="1">
                    <mxGeometry x="329" y="560" width="80" height="30" as="geometry"/>
                </mxCell>
                <mxCell id="211" value="" style="rounded=0;whiteSpace=wrap;html=1;" parent="1" vertex="1">
                    <mxGeometry x="160" y="610" width="80" height="150" as="geometry"/>
                </mxCell>
                <mxCell id="212" value="Admin&lt;br&gt;" style="text;html=1;strokeColor=none;fillColor=none;align=center;verticalAlign=middle;whiteSpace=wrap;rounded=0;" parent="1" vertex="1">
                    <mxGeometry x="170" y="610" width="60" height="30" as="geometry"/>
                </mxCell>
                <mxCell id="215" value="Classroom&lt;br&gt;" style="text;html=1;strokeColor=none;fillColor=none;align=center;verticalAlign=middle;whiteSpace=wrap;rounded=0;" parent="1" vertex="1">
                    <mxGeometry x="171" y="665" width="60" height="30" as="geometry"/>
                </mxCell>
                <mxCell id="216" value="Hostel&lt;br&gt;" style="text;html=1;strokeColor=none;fillColor=none;align=center;verticalAlign=middle;whiteSpace=wrap;rounded=0;" parent="1" vertex="1">
                    <mxGeometry x="171" y="720" width="60" height="30" as="geometry"/>
                </mxCell>
                <mxCell id="217" value="" style="rounded=0;whiteSpace=wrap;html=1;" parent="1" vertex="1">
                    <mxGeometry x="266" y="609.5" width="134" height="150.5" as="geometry"/>
                </mxCell>
                <mxCell id="218" value="Kitchen&lt;br&gt;" style="text;html=1;strokeColor=none;fillColor=none;align=center;verticalAlign=middle;whiteSpace=wrap;rounded=0;" parent="1" vertex="1">
                    <mxGeometry x="303" y="720" width="60" height="30" as="geometry"/>
                </mxCell>
                <mxCell id="219" value="Toilet" style="text;html=1;strokeColor=none;fillColor=none;align=center;verticalAlign=middle;whiteSpace=wrap;rounded=0;" parent="1" vertex="1">
                    <mxGeometry x="303" y="670" width="60" height="30" as="geometry"/>
                </mxCell>
                <mxCell id="220" value="Washroom" style="text;html=1;strokeColor=none;fillColor=none;align=center;verticalAlign=middle;whiteSpace=wrap;rounded=0;" parent="1" vertex="1">
                    <mxGeometry x="310" y="694.5" width="60" height="30" as="geometry"/>
                </mxCell>
                <mxCell id="221" value="Energymeter" style="text;html=1;strokeColor=none;fillColor=none;align=center;verticalAlign=middle;whiteSpace=wrap;rounded=0;" parent="1" vertex="1">
                    <mxGeometry x="303" y="639.5" width="60" height="30" as="geometry"/>
                </mxCell>
                <mxCell id="222" value="Overhead Tank" style="text;html=1;strokeColor=none;fillColor=none;align=center;verticalAlign=middle;whiteSpace=wrap;rounded=0;" parent="1" vertex="1">
                    <mxGeometry x="280" y="610" width="110" height="30" as="geometry"/>
                </mxCell>
                <mxCell id="223" value="" style="shape=table;startSize=0;container=1;collapsible=0;childLayout=tableLayout;" parent="1" vertex="1">
                    <mxGeometry x="645" y="570" width="120" height="80" as="geometry"/>
                </mxCell>
                <mxCell id="224" value="" style="shape=partialRectangle;collapsible=0;dropTarget=0;pointerEvents=0;fillColor=none;top=0;left=0;bottom=0;right=0;points=[[0,0.5],[1,0.5]];portConstraint=eastwest;" parent="223" vertex="1">
                    <mxGeometry width="120" height="40" as="geometry"/>
                </mxCell>
                <mxCell id="225" value="Red" style="shape=partialRectangle;html=1;whiteSpace=wrap;connectable=0;overflow=hidden;fillColor=none;top=0;left=0;bottom=0;right=0;pointerEvents=1;" parent="224" vertex="1">
                    <mxGeometry width="60" height="40" as="geometry">
                        <mxRectangle width="60" height="40" as="alternateBounds"/>
                    </mxGeometry>
                </mxCell>
                <mxCell id="226" value="Not Realized" style="shape=partialRectangle;html=1;whiteSpace=wrap;connectable=0;overflow=hidden;fillColor=none;top=0;left=0;bottom=0;right=0;pointerEvents=1;" parent="224" vertex="1">
                    <mxGeometry x="60" width="60" height="40" as="geometry">
                        <mxRectangle width="60" height="40" as="alternateBounds"/>
                    </mxGeometry>
                </mxCell>
                <mxCell id="227" value="" style="shape=partialRectangle;collapsible=0;dropTarget=0;pointerEvents=0;fillColor=none;top=0;left=0;bottom=0;right=0;points=[[0,0.5],[1,0.5]];portConstraint=eastwest;" parent="223" vertex="1">
                    <mxGeometry y="40" width="120" height="40" as="geometry"/>
                </mxCell>
                <mxCell id="228" value="Green" style="shape=partialRectangle;html=1;whiteSpace=wrap;connectable=0;overflow=hidden;fillColor=none;top=0;left=0;bottom=0;right=0;pointerEvents=1;" parent="227" vertex="1">
                    <mxGeometry width="60" height="40" as="geometry">
                        <mxRectangle width="60" height="40" as="alternateBounds"/>
                    </mxGeometry>
                </mxCell>
                <mxCell id="229" value="Realized" style="shape=partialRectangle;html=1;whiteSpace=wrap;connectable=0;overflow=hidden;fillColor=none;top=0;left=0;bottom=0;right=0;pointerEvents=1;" parent="227" vertex="1">
                    <mxGeometry x="60" width="60" height="40" as="geometry">
                        <mxRectangle width="60" height="40" as="alternateBounds"/>
                    </mxGeometry>
                </mxCell>
                <mxCell id="231" value="" style="shape=table;startSize=0;container=1;collapsible=0;childLayout=tableLayout;" parent="1" vertex="1">
                    <mxGeometry x="600" y="750" width="220" height="320" as="geometry"/>
                </mxCell>
                <mxCell id="232" value="" style="shape=partialRectangle;collapsible=0;dropTarget=0;pointerEvents=0;fillColor=none;top=0;left=0;bottom=0;right=0;points=[[0,0.5],[1,0.5]];portConstraint=eastwest;" parent="231" vertex="1">
                    <mxGeometry width="220" height="40" as="geometry"/>
                </mxCell>
                <mxCell id="233" value="Gateway Hub" style="shape=partialRectangle;html=1;whiteSpace=wrap;connectable=0;overflow=hidden;fillColor=none;top=0;left=0;bottom=0;right=0;pointerEvents=1;" parent="232" vertex="1">
                    <mxGeometry width="73" height="40" as="geometry">
                        <mxRectangle width="73" height="40" as="alternateBounds"/>
                    </mxGeometry>
                </mxCell>
                <mxCell id="234" value="Received" style="shape=partialRectangle;html=1;whiteSpace=wrap;connectable=0;overflow=hidden;fillColor=none;top=0;left=0;bottom=0;right=0;pointerEvents=1;" parent="232" vertex="1">
                    <mxGeometry x="73" width="74" height="40" as="geometry">
                        <mxRectangle width="74" height="40" as="alternateBounds"/>
                    </mxGeometry>
                </mxCell>
                <mxCell id="235" value="Working" style="shape=partialRectangle;html=1;whiteSpace=wrap;connectable=0;overflow=hidden;fillColor=none;top=0;left=0;bottom=0;right=0;pointerEvents=1;" parent="232" vertex="1">
                    <mxGeometry x="147" width="73" height="40" as="geometry">
                        <mxRectangle width="73" height="40" as="alternateBounds"/>
                    </mxGeometry>
                </mxCell>
                <mxCell id="236" value="" style="shape=partialRectangle;collapsible=0;dropTarget=0;pointerEvents=0;fillColor=none;top=0;left=0;bottom=0;right=0;points=[[0,0.5],[1,0.5]];portConstraint=eastwest;" parent="231" vertex="1">
                    <mxGeometry y="40" width="220" height="40" as="geometry"/>
                </mxCell>
                <mxCell id="237" value="Energymeter" style="shape=partialRectangle;html=1;whiteSpace=wrap;connectable=0;overflow=hidden;fillColor=none;top=0;left=0;bottom=0;right=0;pointerEvents=1;" parent="236" vertex="1">
                    <mxGeometry width="73" height="40" as="geometry">
                        <mxRectangle width="73" height="40" as="alternateBounds"/>
                    </mxGeometry>
                </mxCell>
                <mxCell id="238" value="" style="shape=partialRectangle;html=1;whiteSpace=wrap;connectable=0;overflow=hidden;fillColor=none;top=0;left=0;bottom=0;right=0;pointerEvents=1;" parent="236" vertex="1">
                    <mxGeometry x="73" width="74" height="40" as="geometry">
                        <mxRectangle width="74" height="40" as="alternateBounds"/>
                    </mxGeometry>
                </mxCell>
                <mxCell id="239" value="" style="shape=partialRectangle;html=1;whiteSpace=wrap;connectable=0;overflow=hidden;fillColor=none;top=0;left=0;bottom=0;right=0;pointerEvents=1;" parent="236" vertex="1">
                    <mxGeometry x="147" width="73" height="40" as="geometry">
                        <mxRectangle width="73" height="40" as="alternateBounds"/>
                    </mxGeometry>
                </mxCell>
                <mxCell id="240" value="" style="shape=partialRectangle;collapsible=0;dropTarget=0;pointerEvents=0;fillColor=none;top=0;left=0;bottom=0;right=0;points=[[0,0.5],[1,0.5]];portConstraint=eastwest;" parent="231" vertex="1">
                    <mxGeometry y="80" width="220" height="40" as="geometry"/>
                </mxCell>
                <mxCell id="241" value="Water Level Sensor" style="shape=partialRectangle;html=1;whiteSpace=wrap;connectable=0;overflow=hidden;fillColor=none;top=0;left=0;bottom=0;right=0;pointerEvents=1;" parent="240" vertex="1">
                    <mxGeometry width="73" height="40" as="geometry">
                        <mxRectangle width="73" height="40" as="alternateBounds"/>
                    </mxGeometry>
                </mxCell>
                <mxCell id="242" value="" style="shape=partialRectangle;html=1;whiteSpace=wrap;connectable=0;overflow=hidden;fillColor=none;top=0;left=0;bottom=0;right=0;pointerEvents=1;" parent="240" vertex="1">
                    <mxGeometry x="73" width="74" height="40" as="geometry">
                        <mxRectangle width="74" height="40" as="alternateBounds"/>
                    </mxGeometry>
                </mxCell>
                <mxCell id="243" value="Faulty" style="shape=partialRectangle;html=1;whiteSpace=wrap;connectable=0;overflow=hidden;fillColor=none;top=0;left=0;bottom=0;right=0;pointerEvents=1;" parent="240" vertex="1">
                    <mxGeometry x="147" width="73" height="40" as="geometry">
                        <mxRectangle width="73" height="40" as="alternateBounds"/>
                    </mxGeometry>
                </mxCell>
                <mxCell id="244" value="" style="shape=partialRectangle;collapsible=0;dropTarget=0;pointerEvents=0;fillColor=none;top=0;left=0;bottom=0;right=0;points=[[0,0.5],[1,0.5]];portConstraint=eastwest;" parent="231" vertex="1">
                    <mxGeometry y="120" width="220" height="40" as="geometry"/>
                </mxCell>
                <mxCell id="245" value="Flowmeter" style="shape=partialRectangle;html=1;whiteSpace=wrap;connectable=0;overflow=hidden;fillColor=none;top=0;left=0;bottom=0;right=0;pointerEvents=1;" parent="244" vertex="1">
                    <mxGeometry width="73" height="40" as="geometry">
                        <mxRectangle width="73" height="40" as="alternateBounds"/>
                    </mxGeometry>
                </mxCell>
                <mxCell id="246" value="" style="shape=partialRectangle;html=1;whiteSpace=wrap;connectable=0;overflow=hidden;fillColor=none;top=0;left=0;bottom=0;right=0;pointerEvents=1;" parent="244" vertex="1">
                    <mxGeometry x="73" width="74" height="40" as="geometry">
                        <mxRectangle width="74" height="40" as="alternateBounds"/>
                    </mxGeometry>
                </mxCell>
                <mxCell id="247" value="" style="shape=partialRectangle;html=1;whiteSpace=wrap;connectable=0;overflow=hidden;fillColor=none;top=0;left=0;bottom=0;right=0;pointerEvents=1;" parent="244" vertex="1">
                    <mxGeometry x="147" width="73" height="40" as="geometry">
                        <mxRectangle width="73" height="40" as="alternateBounds"/>
                    </mxGeometry>
                </mxCell>
                <mxCell id="248" value="" style="shape=partialRectangle;collapsible=0;dropTarget=0;pointerEvents=0;fillColor=none;top=0;left=0;bottom=0;right=0;points=[[0,0.5],[1,0.5]];portConstraint=eastwest;" parent="231" vertex="1">
                    <mxGeometry y="160" width="220" height="40" as="geometry"/>
                </mxCell>
                <mxCell id="249" value="COD, BOD and TSS" style="shape=partialRectangle;html=1;whiteSpace=wrap;connectable=0;overflow=hidden;fillColor=none;top=0;left=0;bottom=0;right=0;pointerEvents=1;" parent="248" vertex="1">
                    <mxGeometry width="73" height="40" as="geometry">
                        <mxRectangle width="73" height="40" as="alternateBounds"/>
                    </mxGeometry>
                </mxCell>
                <mxCell id="250" value="" style="shape=partialRectangle;html=1;whiteSpace=wrap;connectable=0;overflow=hidden;fillColor=none;top=0;left=0;bottom=0;right=0;pointerEvents=1;" parent="248" vertex="1">
                    <mxGeometry x="73" width="74" height="40" as="geometry">
                        <mxRectangle width="74" height="40" as="alternateBounds"/>
                    </mxGeometry>
                </mxCell>
                <mxCell id="251" value="" style="shape=partialRectangle;html=1;whiteSpace=wrap;connectable=0;overflow=hidden;fillColor=none;top=0;left=0;bottom=0;right=0;pointerEvents=1;" parent="248" vertex="1">
                    <mxGeometry x="147" width="73" height="40" as="geometry">
                        <mxRectangle width="73" height="40" as="alternateBounds"/>
                    </mxGeometry>
                </mxCell>
                <mxCell id="252" value="" style="shape=partialRectangle;collapsible=0;dropTarget=0;pointerEvents=0;fillColor=none;top=0;left=0;bottom=0;right=0;points=[[0,0.5],[1,0.5]];portConstraint=eastwest;" parent="231" vertex="1">
                    <mxGeometry y="200" width="220" height="40" as="geometry"/>
                </mxCell>
                <mxCell id="253" value="PH Sensor&lt;br&gt;" style="shape=partialRectangle;html=1;whiteSpace=wrap;connectable=0;overflow=hidden;fillColor=none;top=0;left=0;bottom=0;right=0;pointerEvents=1;" parent="252" vertex="1">
                    <mxGeometry width="73" height="40" as="geometry">
                        <mxRectangle width="73" height="40" as="alternateBounds"/>
                    </mxGeometry>
                </mxCell>
                <mxCell id="254" value="" style="shape=partialRectangle;html=1;whiteSpace=wrap;connectable=0;overflow=hidden;fillColor=none;top=0;left=0;bottom=0;right=0;pointerEvents=1;" parent="252" vertex="1">
                    <mxGeometry x="73" width="74" height="40" as="geometry">
                        <mxRectangle width="74" height="40" as="alternateBounds"/>
                    </mxGeometry>
                </mxCell>
                <mxCell id="255" value="" style="shape=partialRectangle;html=1;whiteSpace=wrap;connectable=0;overflow=hidden;fillColor=none;top=0;left=0;bottom=0;right=0;pointerEvents=1;" parent="252" vertex="1">
                    <mxGeometry x="147" width="73" height="40" as="geometry">
                        <mxRectangle width="73" height="40" as="alternateBounds"/>
                    </mxGeometry>
                </mxCell>
                <mxCell id="256" value="" style="shape=partialRectangle;collapsible=0;dropTarget=0;pointerEvents=0;fillColor=none;top=0;left=0;bottom=0;right=0;points=[[0,0.5],[1,0.5]];portConstraint=eastwest;" parent="231" vertex="1">
                    <mxGeometry y="240" width="220" height="40" as="geometry"/>
                </mxCell>
                <mxCell id="257" value="TDS Sensor" style="shape=partialRectangle;html=1;whiteSpace=wrap;connectable=0;overflow=hidden;fillColor=none;top=0;left=0;bottom=0;right=0;pointerEvents=1;" parent="256" vertex="1">
                    <mxGeometry width="73" height="40" as="geometry">
                        <mxRectangle width="73" height="40" as="alternateBounds"/>
                    </mxGeometry>
                </mxCell>
                <mxCell id="258" value="" style="shape=partialRectangle;html=1;whiteSpace=wrap;connectable=0;overflow=hidden;fillColor=none;top=0;left=0;bottom=0;right=0;pointerEvents=1;" parent="256" vertex="1">
                    <mxGeometry x="73" width="74" height="40" as="geometry">
                        <mxRectangle width="74" height="40" as="alternateBounds"/>
                    </mxGeometry>
                </mxCell>
                <mxCell id="259" value="" style="shape=partialRectangle;html=1;whiteSpace=wrap;connectable=0;overflow=hidden;fillColor=none;top=0;left=0;bottom=0;right=0;pointerEvents=1;" parent="256" vertex="1">
                    <mxGeometry x="147" width="73" height="40" as="geometry">
                        <mxRectangle width="73" height="40" as="alternateBounds"/>
                    </mxGeometry>
                </mxCell>
                <mxCell id="260" value="" style="shape=partialRectangle;collapsible=0;dropTarget=0;pointerEvents=0;fillColor=none;top=0;left=0;bottom=0;right=0;points=[[0,0.5],[1,0.5]];portConstraint=eastwest;" parent="231" vertex="1">
                    <mxGeometry y="280" width="220" height="40" as="geometry"/>
                </mxCell>
                <mxCell id="261" value="Raspberry Pi" style="shape=partialRectangle;html=1;whiteSpace=wrap;connectable=0;overflow=hidden;fillColor=none;top=0;left=0;bottom=0;right=0;pointerEvents=1;" parent="260" vertex="1">
                    <mxGeometry width="73" height="40" as="geometry">
                        <mxRectangle width="73" height="40" as="alternateBounds"/>
                    </mxGeometry>
                </mxCell>
                <mxCell id="262" value="From FDP" style="shape=partialRectangle;html=1;whiteSpace=wrap;connectable=0;overflow=hidden;fillColor=none;top=0;left=0;bottom=0;right=0;pointerEvents=1;" parent="260" vertex="1">
                    <mxGeometry x="73" width="74" height="40" as="geometry">
                        <mxRectangle width="74" height="40" as="alternateBounds"/>
                    </mxGeometry>
                </mxCell>
                <mxCell id="263" value="" style="shape=partialRectangle;html=1;whiteSpace=wrap;connectable=0;overflow=hidden;fillColor=none;top=0;left=0;bottom=0;right=0;pointerEvents=1;" parent="260" vertex="1">
                    <mxGeometry x="147" width="73" height="40" as="geometry">
                        <mxRectangle width="73" height="40" as="alternateBounds"/>
                    </mxGeometry>
                </mxCell>
                <mxCell id="265" value="Received" style="shape=partialRectangle;html=1;whiteSpace=wrap;connectable=0;overflow=hidden;fillColor=none;top=0;left=0;bottom=0;right=0;pointerEvents=1;" parent="1" vertex="1">
                    <mxGeometry x="673" y="750" width="74" height="40" as="geometry">
                        <mxRectangle width="74" height="40" as="alternateBounds"/>
                    </mxGeometry>
                </mxCell>
                <mxCell id="266" value="Working" style="shape=partialRectangle;html=1;whiteSpace=wrap;connectable=0;overflow=hidden;fillColor=none;top=0;left=0;bottom=0;right=0;pointerEvents=1;" parent="1" vertex="1">
                    <mxGeometry x="747" y="750" width="73" height="40" as="geometry">
                        <mxRectangle width="73" height="40" as="alternateBounds"/>
                    </mxGeometry>
                </mxCell>
                <mxCell id="267" value="Received" style="shape=partialRectangle;html=1;whiteSpace=wrap;connectable=0;overflow=hidden;fillColor=none;top=0;left=0;bottom=0;right=0;pointerEvents=1;" parent="1" vertex="1">
                    <mxGeometry x="673" y="790" width="74" height="40" as="geometry">
                        <mxRectangle width="74" height="40" as="alternateBounds"/>
                    </mxGeometry>
                </mxCell>
                <mxCell id="268" value="Received" style="shape=partialRectangle;html=1;whiteSpace=wrap;connectable=0;overflow=hidden;fillColor=none;top=0;left=0;bottom=0;right=0;pointerEvents=1;" parent="1" vertex="1">
                    <mxGeometry x="673" y="830" width="74" height="40" as="geometry">
                        <mxRectangle width="74" height="40" as="alternateBounds"/>
                    </mxGeometry>
                </mxCell>
                <mxCell id="269" value="Received" style="shape=partialRectangle;html=1;whiteSpace=wrap;connectable=0;overflow=hidden;fillColor=none;top=0;left=0;bottom=0;right=0;pointerEvents=1;" parent="1" vertex="1">
                    <mxGeometry x="673" y="870" width="74" height="40" as="geometry">
                        <mxRectangle width="74" height="40" as="alternateBounds"/>
                    </mxGeometry>
                </mxCell>
                <mxCell id="270" value="Received" style="shape=partialRectangle;html=1;whiteSpace=wrap;connectable=0;overflow=hidden;fillColor=none;top=0;left=0;bottom=0;right=0;pointerEvents=1;" parent="1" vertex="1">
                    <mxGeometry x="673" y="910" width="74" height="40" as="geometry">
                        <mxRectangle width="74" height="40" as="alternateBounds"/>
                    </mxGeometry>
                </mxCell>
                <mxCell id="271" value="Received" style="shape=partialRectangle;html=1;whiteSpace=wrap;connectable=0;overflow=hidden;fillColor=none;top=0;left=0;bottom=0;right=0;pointerEvents=1;" parent="1" vertex="1">
                    <mxGeometry x="673" y="950" width="74" height="40" as="geometry">
                        <mxRectangle width="74" height="40" as="alternateBounds"/>
                    </mxGeometry>
                </mxCell>
                <mxCell id="272" value="Received" style="shape=partialRectangle;html=1;whiteSpace=wrap;connectable=0;overflow=hidden;fillColor=none;top=0;left=0;bottom=0;right=0;pointerEvents=1;" parent="1" vertex="1">
                    <mxGeometry x="673" y="990" width="74" height="40" as="geometry">
                        <mxRectangle width="74" height="40" as="alternateBounds"/>
                    </mxGeometry>
                </mxCell>
                <mxCell id="275" value="Working" style="shape=partialRectangle;html=1;whiteSpace=wrap;connectable=0;overflow=hidden;fillColor=none;top=0;left=0;bottom=0;right=0;pointerEvents=1;" parent="1" vertex="1">
                    <mxGeometry x="747" y="870" width="73" height="40" as="geometry">
                        <mxRectangle width="73" height="40" as="alternateBounds"/>
                    </mxGeometry>
                </mxCell>
                <mxCell id="276" value="Working" style="shape=partialRectangle;html=1;whiteSpace=wrap;connectable=0;overflow=hidden;fillColor=none;top=0;left=0;bottom=0;right=0;pointerEvents=1;" parent="1" vertex="1">
                    <mxGeometry x="747" y="990" width="73" height="40" as="geometry">
                        <mxRectangle width="73" height="40" as="alternateBounds"/>
                    </mxGeometry>
                </mxCell>
                <mxCell id="277" value="In Progress" style="shape=partialRectangle;html=1;whiteSpace=wrap;connectable=0;overflow=hidden;fillColor=none;top=0;left=0;bottom=0;right=0;pointerEvents=1;" parent="1" vertex="1">
                    <mxGeometry x="747" y="910" width="73" height="40" as="geometry">
                        <mxRectangle width="73" height="40" as="alternateBounds"/>
                    </mxGeometry>
                </mxCell>
                <mxCell id="278" value="In Progress" style="shape=partialRectangle;html=1;whiteSpace=wrap;connectable=0;overflow=hidden;fillColor=none;top=0;left=0;bottom=0;right=0;pointerEvents=1;" parent="1" vertex="1">
                    <mxGeometry x="747" y="950" width="73" height="40" as="geometry">
                        <mxRectangle width="73" height="40" as="alternateBounds"/>
                    </mxGeometry>
                </mxCell>
                <mxCell id="279" value="" style="endArrow=none;html=1;entryX=0.548;entryY=1;entryDx=0;entryDy=0;entryPerimeter=0;exitX=0.092;exitY=-0.015;exitDx=0;exitDy=0;exitPerimeter=0;" parent="1" source="222" target="201" edge="1">
                    <mxGeometry width="50" height="50" relative="1" as="geometry">
                        <mxPoint x="250" y="610" as="sourcePoint"/>
                        <mxPoint x="300" y="560" as="targetPoint"/>
                    </mxGeometry>
                </mxCell>
                <mxCell id="280" value="" style="endArrow=none;html=1;entryX=0.548;entryY=1;entryDx=0;entryDy=0;entryPerimeter=0;exitX=0.092;exitY=-0.015;exitDx=0;exitDy=0;exitPerimeter=0;" parent="1" edge="1">
                    <mxGeometry width="50" height="50" relative="1" as="geometry">
                        <mxPoint x="362.89000000000004" y="610" as="sourcePoint"/>
                        <mxPoint x="362.774" y="590.45" as="targetPoint"/>
                    </mxGeometry>
                </mxCell>
                <mxCell id="281" value="" style="rounded=0;whiteSpace=wrap;html=1;" parent="1" vertex="1">
                    <mxGeometry x="660" y="670" width="93" height="30" as="geometry"/>
                </mxCell>
                <mxCell id="282" value="Sensor Status" style="text;html=1;strokeColor=none;fillColor=none;align=center;verticalAlign=middle;whiteSpace=wrap;rounded=0;" parent="1" vertex="1">
                    <mxGeometry x="676.5" y="670" width="60" height="30" as="geometry"/>
                </mxCell>
                <mxCell id="283" value="System Status" style="rounded=0;whiteSpace=wrap;html=1;" parent="1" vertex="1">
                    <mxGeometry x="665" y="530" width="90" height="31" as="geometry"/>
                </mxCell>
                <mxCell id="284" value="" style="shape=table;startSize=0;container=1;collapsible=0;childLayout=tableLayout;" parent="1" vertex="1">
                    <mxGeometry x="600" y="730" width="220" height="20" as="geometry"/>
                </mxCell>
                <mxCell id="285" value="" style="shape=partialRectangle;collapsible=0;dropTarget=0;pointerEvents=0;fillColor=none;top=0;left=0;bottom=0;right=0;points=[[0,0.5],[1,0.5]];portConstraint=eastwest;" parent="284" vertex="1">
                    <mxGeometry width="220" height="20" as="geometry"/>
                </mxCell>
                <mxCell id="286" value="Sensor" style="shape=partialRectangle;html=1;whiteSpace=wrap;connectable=0;overflow=hidden;fillColor=none;top=0;left=0;bottom=0;right=0;pointerEvents=1;" parent="285" vertex="1">
                    <mxGeometry width="73" height="20" as="geometry">
                        <mxRectangle width="73" height="20" as="alternateBounds"/>
                    </mxGeometry>
                </mxCell>
                <mxCell id="287" value="Staus" style="shape=partialRectangle;html=1;whiteSpace=wrap;connectable=0;overflow=hidden;fillColor=none;top=0;left=0;bottom=0;right=0;pointerEvents=1;" parent="285" vertex="1">
                    <mxGeometry x="73" width="74" height="20" as="geometry">
                        <mxRectangle width="74" height="20" as="alternateBounds"/>
                    </mxGeometry>
                </mxCell>
                <mxCell id="288" value="Condition" style="shape=partialRectangle;html=1;whiteSpace=wrap;connectable=0;overflow=hidden;fillColor=none;top=0;left=0;bottom=0;right=0;pointerEvents=1;" parent="285" vertex="1">
                    <mxGeometry x="147" width="73" height="20" as="geometry">
                        <mxRectangle width="73" height="20" as="alternateBounds"/>
                    </mxGeometry>
                </mxCell>
                <mxCell id="289" value="Working" style="shape=partialRectangle;html=1;whiteSpace=wrap;connectable=0;overflow=hidden;fillColor=none;top=0;left=0;bottom=0;right=0;pointerEvents=1;" parent="1" vertex="1">
                    <mxGeometry x="747" y="790" width="73" height="40" as="geometry">
                        <mxRectangle width="73" height="40" as="alternateBounds"/>
                    </mxGeometry>
                </mxCell>
                <mxCell id="290" value="Working" style="shape=partialRectangle;html=1;whiteSpace=wrap;connectable=0;overflow=hidden;fillColor=none;top=0;left=0;bottom=0;right=0;pointerEvents=1;" parent="1" vertex="1">
                    <mxGeometry x="747" y="1030" width="73" height="40" as="geometry">
                        <mxRectangle width="73" height="40" as="alternateBounds"/>
                    </mxGeometry>
                </mxCell>
                <mxCell id="291" value="10 m" style="text;html=1;strokeColor=none;fillColor=none;align=center;verticalAlign=middle;whiteSpace=wrap;rounded=0;" parent="1" vertex="1">
                    <mxGeometry x="730" y="220" width="60" height="30" as="geometry"/>
                </mxCell>
                <mxCell id="292" value="" style="rounded=0;whiteSpace=wrap;html=1;" parent="1" vertex="1">
                    <mxGeometry x="210" y="870" width="330" height="200" as="geometry"/>
                </mxCell>
                <mxCell id="293" value="&lt;ul&gt;&lt;li&gt;&lt;span&gt;WIRAS building height 16 m including parapet.&amp;nbsp;&lt;/span&gt;&lt;br&gt;&lt;/li&gt;&lt;li&gt;&lt;span&gt;Parapet height 1.2 m.&amp;nbsp;&lt;/span&gt;&lt;/li&gt;&lt;li&gt;&lt;span&gt;Tank height 4.7 m from the terrace.&lt;/span&gt;&lt;br&gt;&lt;/li&gt;&lt;li&gt;&lt;span&gt;Well height 10.75 m&lt;/span&gt;&lt;/li&gt;&lt;li&gt;&lt;span&gt;All the sensors except flowmeter sensors have 12v power supply.&lt;/span&gt;&lt;/li&gt;&lt;li&gt;&lt;span&gt;Flowmeter sensor have 230v power supply.&lt;/span&gt;&lt;/li&gt;&lt;/ul&gt;" style="text;html=1;strokeColor=none;fillColor=none;align=left;verticalAlign=middle;whiteSpace=wrap;rounded=0;" parent="1" vertex="1">
                    <mxGeometry x="220" y="880" width="310" height="180" as="geometry"/>
                </mxCell>
                <mxCell id="296" value="" style="endArrow=classic;html=1;exitX=0.5;exitY=1;exitDx=0;exitDy=0;entryX=0.869;entryY=-0.029;entryDx=0;entryDy=0;entryPerimeter=0;fillColor=#a20025;strokeColor=#6F0000;" parent="1" source="168" edge="1">
                    <mxGeometry width="50" height="50" relative="1" as="geometry">
                        <mxPoint x="415" y="110" as="sourcePoint"/>
                        <mxPoint x="628.865" y="139.13" as="targetPoint"/>
                        <Array as="points">
                            <mxPoint x="405" y="40"/>
                            <mxPoint x="630" y="40"/>
                        </Array>
                    </mxGeometry>
                </mxCell>
                <mxCell id="297" value="" style="endArrow=classic;html=1;exitX=1.015;exitY=0.009;exitDx=0;exitDy=0;exitPerimeter=0;entryX=0.524;entryY=-0.071;entryDx=0;entryDy=0;entryPerimeter=0;fillColor=#a20025;strokeColor=#6F0000;" parent="1" source="150" edge="1">
                    <mxGeometry width="50" height="50" relative="1" as="geometry">
                        <mxPoint x="465" y="94.5" as="sourcePoint"/>
                        <mxPoint x="599.54" y="137.87" as="targetPoint"/>
                        <Array as="points">
                            <mxPoint x="466" y="60"/>
                            <mxPoint x="600" y="60"/>
                        </Array>
                    </mxGeometry>
                </mxCell>
                <mxCell id="300" value="" style="endArrow=classic;html=1;exitX=0.333;exitY=0.125;exitDx=0;exitDy=0;exitPerimeter=0;fillColor=#a20025;strokeColor=#6F0000;" parent="1" source="145" edge="1">
                    <mxGeometry width="50" height="50" relative="1" as="geometry">
                        <mxPoint x="760" y="440" as="sourcePoint"/>
                        <mxPoint x="810" y="390" as="targetPoint"/>
                        <Array as="points">
                            <mxPoint x="810" y="400"/>
                        </Array>
                    </mxGeometry>
                </mxCell>
                <mxCell id="301" value="" style="endArrow=none;html=1;entryX=0.705;entryY=1.048;entryDx=0;entryDy=0;entryPerimeter=0;fillColor=#008a00;strokeColor=#005700;" parent="1" target="25" edge="1">
                    <mxGeometry width="50" height="50" relative="1" as="geometry">
                        <mxPoint x="820" y="500" as="sourcePoint"/>
                        <mxPoint x="810" y="420" as="targetPoint"/>
                    </mxGeometry>
                </mxCell>
                <mxCell id="302" value="" style="endArrow=classic;html=1;entryX=-0.062;entryY=0.599;entryDx=0;entryDy=0;entryPerimeter=0;fillColor=#a20025;strokeColor=#6F0000;" parent="1" target="SXwqGnE4gHne9lj4v5kZ-165" edge="1">
                    <mxGeometry width="50" height="50" relative="1" as="geometry">
                        <mxPoint x="420" y="340" as="sourcePoint"/>
                        <mxPoint x="510" y="310" as="targetPoint"/>
                        <Array as="points">
                            <mxPoint x="420" y="310"/>
                            <mxPoint x="470" y="310"/>
                        </Array>
                    </mxGeometry>
                </mxCell>
                <mxCell id="303" value="" style="verticalLabelPosition=bottom;verticalAlign=top;html=1;shape=mxgraph.basic.rect;fillColor2=none;strokeWidth=1;size=13;indent=5;" parent="1" vertex="1">
                    <mxGeometry x="575" y="139.25" width="70" height="40" as="geometry"/>
                </mxCell>
                <mxCell id="304" value="&lt;span&gt;ED1&amp;nbsp;8 Port&lt;/span&gt;&lt;br&gt;&lt;span&gt;2 used&lt;/span&gt;" style="text;html=1;strokeColor=none;fillColor=none;align=center;verticalAlign=middle;whiteSpace=wrap;rounded=0;" parent="1" vertex="1">
                    <mxGeometry x="575" y="144.25" width="70" height="30" as="geometry"/>
                </mxCell>
                <mxCell id="305" value="" style="verticalLabelPosition=bottom;verticalAlign=top;html=1;shape=mxgraph.basic.rect;fillColor2=none;strokeWidth=1;size=13;indent=5;" parent="1" vertex="1">
                    <mxGeometry x="295" y="430" width="70" height="40" as="geometry"/>
                </mxCell>
                <mxCell id="306" value="" style="endArrow=classic;html=1;exitX=0.726;exitY=0;exitDx=0;exitDy=0;exitPerimeter=0;entryX=0.126;entryY=1.022;entryDx=0;entryDy=0;entryPerimeter=0;fillColor=#008a00;strokeColor=#005700;" parent="1" source="201" target="305" edge="1">
                    <mxGeometry width="50" height="50" relative="1" as="geometry">
                        <mxPoint x="303" y="551" as="sourcePoint"/>
                        <mxPoint x="353" y="501" as="targetPoint"/>
                    </mxGeometry>
                </mxCell>
                <mxCell id="307" value="ED1&amp;nbsp;8 Port&lt;br&gt;1 used" style="text;html=1;strokeColor=none;fillColor=none;align=center;verticalAlign=middle;whiteSpace=wrap;rounded=0;" parent="1" vertex="1">
                    <mxGeometry x="297.5" y="436" width="65" height="30" as="geometry"/>
                </mxCell>
                <mxCell id="310" value="" style="verticalLabelPosition=bottom;verticalAlign=top;html=1;shape=mxgraph.basic.rect;fillColor2=none;strokeWidth=1;size=13;indent=5;" parent="1" vertex="1">
                    <mxGeometry x="250" y="160" width="70" height="40" as="geometry"/>
                </mxCell>
                <mxCell id="311" value="ED2 8 Port&lt;br&gt;2 used" style="text;html=1;strokeColor=none;fillColor=none;align=center;verticalAlign=middle;whiteSpace=wrap;rounded=0;" parent="1" vertex="1">
                    <mxGeometry x="250" y="165" width="70" height="30" as="geometry"/>
                </mxCell>
                <mxCell id="315" value="" style="rounded=1;whiteSpace=wrap;html=1;" parent="1" vertex="1">
                    <mxGeometry x="330" y="520" width="78" height="30" as="geometry"/>
                </mxCell>
                <mxCell id="316" value="" style="endArrow=none;html=1;entryX=0.548;entryY=1;entryDx=0;entryDy=0;entryPerimeter=0;exitX=0.42;exitY=-0.009;exitDx=0;exitDy=0;exitPerimeter=0;" parent="1" source="202" edge="1">
                    <mxGeometry width="50" height="50" relative="1" as="geometry">
                        <mxPoint x="363" y="560" as="sourcePoint"/>
                        <mxPoint x="362.504" y="550.45" as="targetPoint"/>
                    </mxGeometry>
                </mxCell>
                <mxCell id="319" value="Water Level Sensor" style="text;html=1;strokeColor=none;fillColor=none;align=center;verticalAlign=middle;whiteSpace=wrap;rounded=0;" parent="1" vertex="1">
                    <mxGeometry x="330" y="520" width="80" height="30" as="geometry"/>
                </mxCell>
                <mxCell id="320" value="" style="verticalLabelPosition=bottom;verticalAlign=top;html=1;shape=mxgraph.basic.rect;fillColor2=none;strokeWidth=1;size=13;indent=5;" parent="1" vertex="1">
                    <mxGeometry x="500" y="400" width="70" height="40" as="geometry"/>
                </mxCell>
                <mxCell id="321" value="ED2 8 Port&lt;br&gt;5 used" style="text;html=1;strokeColor=none;fillColor=none;align=center;verticalAlign=middle;whiteSpace=wrap;rounded=0;" parent="1" vertex="1">
                    <mxGeometry x="505" y="405" width="65" height="30" as="geometry"/>
                </mxCell>
                <mxCell id="322" value="21 m" style="text;html=1;align=center;verticalAlign=middle;resizable=0;points=[];autosize=1;strokeColor=none;fillColor=none;" parent="1" vertex="1">
                    <mxGeometry x="490" y="730" width="40" height="20" as="geometry"/>
                </mxCell>
                <mxCell id="323" value="" style="endArrow=classic;html=1;exitX=1;exitY=0.5;exitDx=0;exitDy=0;entryX=0.425;entryY=1.056;entryDx=0;entryDy=0;entryPerimeter=0;fillColor=#a20025;strokeColor=#6F0000;" parent="1" source="202" target="320" edge="1">
                    <mxGeometry width="50" height="50" relative="1" as="geometry">
                        <mxPoint x="450" y="560" as="sourcePoint"/>
                        <mxPoint x="580" y="575" as="targetPoint"/>
                        <Array as="points">
                            <mxPoint x="530" y="575"/>
                        </Array>
                    </mxGeometry>
                </mxCell>
                <mxCell id="324" value="" style="endArrow=classic;html=1;exitX=1;exitY=0.667;exitDx=0;exitDy=0;exitPerimeter=0;entryX=0.286;entryY=1;entryDx=0;entryDy=0;entryPerimeter=0;fillColor=#a20025;strokeColor=#6F0000;" parent="1" source="319" target="320" edge="1">
                    <mxGeometry width="50" height="50" relative="1" as="geometry">
                        <mxPoint x="435" y="540" as="sourcePoint"/>
                        <mxPoint x="590" y="540" as="targetPoint"/>
                        <Array as="points">
                            <mxPoint x="520" y="540"/>
                        </Array>
                    </mxGeometry>
                </mxCell>
                <mxCell id="325" value="21 m" style="text;html=1;align=center;verticalAlign=middle;resizable=0;points=[];autosize=1;strokeColor=none;fillColor=none;" parent="1" vertex="1">
                    <mxGeometry x="430" y="520" width="40" height="20" as="geometry"/>
                </mxCell>
                <mxCell id="326" value="21 m" style="text;html=1;align=center;verticalAlign=middle;resizable=0;points=[];autosize=1;strokeColor=none;fillColor=none;" parent="1" vertex="1">
                    <mxGeometry x="490" y="699.5" width="40" height="20" as="geometry"/>
                </mxCell>
                <mxCell id="327" value="21 m" style="text;html=1;align=center;verticalAlign=middle;resizable=0;points=[];autosize=1;strokeColor=none;fillColor=none;" parent="1" vertex="1">
                    <mxGeometry x="489" y="669.5" width="40" height="20" as="geometry"/>
                </mxCell>
                <mxCell id="328" value="21 m" style="text;html=1;align=center;verticalAlign=middle;resizable=0;points=[];autosize=1;strokeColor=none;fillColor=none;" parent="1" vertex="1">
                    <mxGeometry x="430" y="550" width="40" height="20" as="geometry"/>
                </mxCell>
                <mxCell id="333" value="" style="endArrow=classic;html=1;exitX=0.5;exitY=0;exitDx=0;exitDy=0;entryX=0.853;entryY=-0.05;entryDx=0;entryDy=0;entryPerimeter=0;fillColor=#a20025;strokeColor=#6F0000;" parent="1" source="77" target="310" edge="1">
                    <mxGeometry width="50" height="50" relative="1" as="geometry">
                        <mxPoint x="180" y="75" as="sourcePoint"/>
                        <mxPoint x="340" y="30" as="targetPoint"/>
                        <Array as="points">
                            <mxPoint x="190" y="30"/>
                            <mxPoint x="250" y="30"/>
                            <mxPoint x="290" y="30"/>
                            <mxPoint x="310" y="30"/>
                        </Array>
                    </mxGeometry>
                </mxCell>
                <mxCell id="334" value="" style="endArrow=classic;html=1;entryX=0.713;entryY=0.113;entryDx=0;entryDy=0;entryPerimeter=0;exitX=0.5;exitY=1;exitDx=0;exitDy=0;fillColor=#a20025;strokeColor=#6F0000;" parent="1" source="162" target="310" edge="1">
                    <mxGeometry width="50" height="50" relative="1" as="geometry">
                        <mxPoint x="110" y="60" as="sourcePoint"/>
                        <mxPoint x="360" y="60" as="targetPoint"/>
                        <Array as="points">
                            <mxPoint x="200" y="60"/>
                            <mxPoint x="270" y="60"/>
                            <mxPoint x="300" y="60"/>
                        </Array>
                    </mxGeometry>
                </mxCell>
                <mxCell id="335" value="170m" style="text;html=1;align=center;verticalAlign=middle;resizable=0;points=[];autosize=1;strokeColor=none;fillColor=none;" parent="1" vertex="1">
                    <mxGeometry x="278" y="10" width="50" height="20" as="geometry"/>
                </mxCell>
                <mxCell id="336" value="170m" style="text;html=1;align=center;verticalAlign=middle;resizable=0;points=[];autosize=1;strokeColor=none;fillColor=none;" parent="1" vertex="1">
                    <mxGeometry x="260" y="40" width="50" height="20" as="geometry"/>
                </mxCell>
                <mxCell id="337" value="5 m" style="text;html=1;align=center;verticalAlign=middle;resizable=0;points=[];autosize=1;strokeColor=none;fillColor=none;" parent="1" vertex="1">
                    <mxGeometry x="510" y="10" width="40" height="20" as="geometry"/>
                </mxCell>
                <mxCell id="338" value="5 m" style="text;html=1;align=center;verticalAlign=middle;resizable=0;points=[];autosize=1;strokeColor=none;fillColor=none;" parent="1" vertex="1">
                    <mxGeometry x="511" y="40" width="40" height="20" as="geometry"/>
                </mxCell>
            </root>
        </mxGraphModel>
    </diagram>
</mxfile>